<?xml version="1.0" encoding="UTF-8"?>
<svg id="Layer_1" xmlns="http://www.w3.org/2000/svg" version="1.1" viewBox="0 0 1200 896">
  <!-- Generator: Adobe Illustrator 30.1.0, SVG Export Plug-In . SVG Version: 2.1.1 Build 136)  -->
  <defs>
    <style>
      .st0 {
        fill: none;
        stroke-width: 23px;
      }

      .st0, .st1, .st2 {
        stroke: #fff;
        stroke-miterlimit: 10;
      }

      .st3, .st1, .st2 {
        fill: #fff;
      }

      .st1 {
        stroke-width: 13px;
      }
    </style>
  </defs>
  <path class="st0" d="M463.63,483.89c-6.48-16.58-10.04-34.62-10.04-53.49,0-81.14,65.78-146.92,146.92-146.92s146.92,65.78,146.92,146.92-65.78,146.92-146.92,146.92c-22.19,0-43.24-4.92-62.1-13.73"/>
  <polygon class="st1" points="582.22 283.48 617.78 283.48 600.16 85.4 600.16 85.4 582.22 283.48"/>
  <polygon class="st1" points="453.58 449.31 453.58 413.75 255.5 431.37 255.5 431.37 453.58 449.31"/>
  <polygon class="st1" points="747.42 412.9 747.7 448.46 945.63 429.27 945.63 429.27 747.42 412.9"/>
  <polygon class="st1" points="704.45 313.03 729.8 337.97 856.19 184.44 856.19 184.44 704.45 313.03"/>
  <polygon class="st1" points="728.5 528.66 703.55 554.01 857.08 680.4 857.08 680.4 728.5 528.66"/>
  <polygon class="st1" points="470.6 334.39 495.55 309.05 342.02 182.66 342.02 182.66 470.6 334.39"/>
  <polygon class="st1" points="620.16 577.32 584.6 577.32 602.22 775.4 602.22 775.4 620.16 577.32"/>
  <path class="st3" d="M727.33,362.1c-10.99,7.01-20.57,14.1-29.87,23.66-41.11,42.23-17.77,73.41-78.11,137.59l-5.35,5.69c-11.38,12.11-24.22,21.26-37.77,31.25-35.47,26.15-63.15,61.08-80.14,101.6-15.18,36.22-22.8,74.94-22.27,113.98l-30.02-10.46,3.06-29.37c2.93-33.87,12.93-65.74,27.56-96.5,19.04-40,45.89-73.34,81.28-99.86,37.2-27.88,65.78-52.13,80.92-98.11,14.47-48.23,22.04-70.83,64.78-100.49-36.95,3.68-61.33,22.54-81.65,51.49l-14.29,20.36c-13.68,19.48-29.41,37.04-49.75,49.68-18.04,11.22-36.73,18.99-57.06,24.8-29.84,8.54-43.4,7.8-73.8,19.94-38.15,15.23-72.83,42.73-98.22,74.64-15.3,19.23-24.33,37.76-35.39,59.96-6.93-8.62-14.72-21.09-20.34-30.96,29.9-58.91,75.89-99.81,136.39-127.58,40.11-18.4,66.53-13.99,113.67-34.56,27.3-11.91,47.56-31.63,63.82-56.32,40.72-61.84,84.55-77.7,127.08-72.02"/>
  <line class="st3" x1="-212.28" y1="-7744" x2="-212.28" y2="8639"/>
  <line class="st3" x1="-7591.5" y1="283.48" x2="8791.5" y2="283.48"/>
  <line class="st2" x1="-7591.5" y1="429.9" x2="8791.5" y2="429.9"/>
  <line class="st2" x1="-7591.5" y1="577.32" x2="8791.5" y2="577.32"/>
  <line class="st2" x1="-7591.5" y1="179.98" x2="8791.5" y2="179.98"/>
  <line class="st3" x1="-7591.5" y1="337.08" x2="8791.5" y2="337.08"/>
  <line class="st3" x1="-1841.87" y1="-7744" x2="-1841.87" y2="8639"/>
</svg>